<svg viewBox="0 0 158 75" fill="none" xmlns="http://www.w3.org/2000/svg">
  <path d="M4.61026 21.1207C5.51323 21.3979 5.60215 22.3323 5.76168 23.0391C6.76406 27.2699 7.90199 31.4707 8.63325 35.7616C10.1657 44.5929 11.4722 53.4742 12.9093 62.2736C13.0236 62.9904 13.1832 63.6972 13.438 64.4359C14.1808 61.0908 14.3666 57.7101 15.1596 54.4069C15.3904 54.4088 15.5761 54.4207 15.807 54.4226C15.9065 54.9836 16.1013 55.5766 16.0653 56.1677C15.722 60.8025 15.3385 65.4993 14.9049 70.1542C14.7467 71.8855 13.8726 72.3971 12.6343 71.5052C11.6918 70.8127 10.8249 69.9445 10.0483 69.0563C8.38508 67.0922 6.76206 65.0663 5.13904 63.0403C4.08714 61.6829 4.06738 61.4753 4.01026 59.4205C7.04954 60.8148 8.34916 64.2907 10.9006 66.3761C10.8815 65.6912 10.9677 65.142 10.8731 64.6329C8.79087 50.9935 6.71358 37.406 4.63135 23.7666C4.50712 22.9459 4.06167 22.1434 4.61026 21.1207Z" fill="#5E46E4"/>
  <path d="M46.9071 9.84385C47.9088 10.4326 47.9032 11.5914 48.0045 12.4937C48.6654 17.908 49.485 23.3237 49.8286 28.7351C50.5673 39.8801 51.0416 51.0227 51.6748 62.1024C51.7232 63.0042 51.8246 63.9065 52.0314 64.8741C53.2664 61.0227 53.8678 56.9722 55.1554 53.1856C55.4194 53.2524 55.6306 53.3188 55.8947 53.3856C55.9441 54.0943 56.0989 54.8683 55.9897 55.5755C55.0638 61.1038 54.0846 66.6959 53.0529 72.2232C52.6727 74.28 51.6134 74.6564 50.2984 73.2278C49.2992 72.124 48.4066 70.828 47.6198 69.5331C45.9417 66.6846 44.3167 63.7723 42.6918 60.86C41.6438 58.9188 41.645 58.6613 41.8159 56.1519C45.1347 58.6937 46.2227 63.275 48.9036 66.519C48.9605 65.6826 49.1223 65.0402 49.0726 64.396C48.2575 47.2626 47.4421 30.1937 46.6269 13.0604C46.5791 12.0298 46.1615 10.9314 46.9071 9.84385Z" fill="#5E46E4"/>
  <path d="M80.2484 0.594649C81.2077 1.36912 81.1246 2.67617 81.1653 3.70551C81.4622 9.88792 81.9171 16.0894 81.898 22.2337C81.8893 34.8915 81.6173 47.5176 81.5079 60.0901C81.4959 61.1131 81.5366 62.1425 81.6781 63.2571C83.1666 59.0466 84.0369 54.5419 85.5735 50.4104C85.8322 50.5148 86.0383 50.6129 86.297 50.7173C86.2989 51.5225 86.4015 52.4129 86.2454 53.199C84.9529 59.3357 83.6031 65.5386 82.2052 71.6626C81.6887 73.9417 80.6075 74.2501 79.3923 72.4934C78.47 71.138 77.6669 69.5775 76.9691 68.0297C75.4867 64.631 74.0616 61.166 72.6365 57.701C71.7215 55.3952 71.74 55.1048 72.0781 52.2919C75.2164 55.5249 75.9948 60.8142 78.4503 64.7696C78.563 63.832 78.7672 63.1249 78.7607 62.3924C79.0934 42.9686 79.4215 23.6174 79.7542 4.19357C79.7754 3.02537 79.4325 1.74 80.2484 0.594649Z" fill="#5E46E4"/>
  <path d="M116.226 3.75108C116.97 4.6779 116.772 5.89484 116.707 6.87487C116.36 12.7718 116.147 18.719 115.534 24.5154C114.299 36.463 112.842 48.3268 111.529 60.1732C111.42 61.1365 111.355 62.1165 111.367 63.1977C113.046 59.5266 114.225 55.4515 115.937 51.8647C116.147 52.0161 116.314 52.1508 116.524 52.3021C116.448 53.0626 116.449 53.9242 116.239 54.6343C114.541 60.1638 112.788 65.7442 111.002 71.2402C110.34 73.2863 109.388 73.3569 108.521 71.4506C107.866 69.9829 107.332 68.3459 106.887 66.7424C105.952 63.2315 105.073 59.6697 104.193 56.1079C103.636 53.7446 103.68 53.4741 104.241 50.8877C106.605 54.58 106.756 59.732 108.467 63.967C108.654 63.1048 108.897 62.479 108.962 61.7861C111.131 43.5175 113.288 25.3164 115.456 7.04773C115.587 5.94924 115.419 4.66586 116.226 3.75108Z" fill="#5E46E4"/>
  <path d="M150.221 21.0725C150.891 22.022 150.642 22.8934 150.532 23.6253C149.912 28.0436 149.417 32.543 148.546 36.7991C146.777 45.5803 144.798 54.2262 142.959 62.9049C142.806 63.6098 142.696 64.3417 142.656 65.176C144.449 62.8932 145.782 60.1406 147.604 57.9332C147.799 58.1169 147.952 58.2735 148.148 58.4571C148.037 59.0167 147.996 59.6788 147.76 60.1572C145.858 63.8611 143.899 67.5863 141.913 71.236C141.177 72.596 140.257 72.3456 139.516 70.6044C138.956 69.2676 138.522 67.8396 138.172 66.4656C137.443 63.4701 136.77 60.4531 136.096 57.4362C135.675 55.4429 135.731 55.2493 136.397 53.4423C138.492 57.0341 138.387 61.0394 139.827 64.8392C140.049 64.2369 140.313 63.8339 140.41 63.3227C143.384 49.985 146.345 36.6957 149.319 23.3579C149.499 22.5563 149.4 21.5169 150.221 21.0725Z" fill="#5E46E4"/>
</svg>
