<svg viewBox="0 0 48 47" fill="none" xmlns="http://www.w3.org/2000/svg">
<path d="M24 46.4409C36.7284 46.4409 47.0469 36.1225 47.0469 23.394C47.0469 10.6656 36.7284 0.347168 24 0.347168C11.2716 0.347168 0.953125 10.6656 0.953125 23.394C0.953125 36.1225 11.2716 46.4409 24 46.4409Z" fill="url(#paint0_radial_5_280)"/>
<path fill-rule="evenodd" clip-rule="evenodd" d="M16.9424 8.35633L11.9002 11.2688C11.6388 11.4282 11.4502 11.6835 11.3746 11.9802C11.2991 12.2768 11.3426 12.5913 11.4959 12.8562C11.6492 13.1212 11.9001 13.3157 12.195 13.398C12.4898 13.4804 12.8052 13.4441 13.0736 13.297L18.1142 10.3845C18.2531 10.3105 18.3756 10.2094 18.4746 10.0871C18.5735 9.96477 18.6468 9.8238 18.6901 9.67256C18.7333 9.52133 18.7457 9.36292 18.7265 9.2068C18.7073 9.05067 18.6568 8.90001 18.5781 8.76381C18.4994 8.6276 18.3941 8.50864 18.2684 8.414C18.1428 8.31937 17.9993 8.251 17.8467 8.21297C17.694 8.17495 17.5353 8.16805 17.3799 8.19267C17.2246 8.2173 17.0758 8.27296 16.9424 8.35633ZM29.8892 10.3845L34.9314 13.297C35.0648 13.3783 35.213 13.4321 35.3674 13.4553C35.5219 13.4785 35.6794 13.4706 35.8307 13.432C35.982 13.3935 36.1241 13.3251 36.2487 13.2309C36.3732 13.1366 36.4776 13.0185 36.5558 12.8833C36.6341 12.7481 36.6845 12.5987 36.7041 12.4438C36.7237 12.2888 36.7122 12.1315 36.6702 11.9811C36.6282 11.8307 36.5565 11.6902 36.4594 11.5679C36.3623 11.4456 36.2418 11.3439 36.1049 11.2688L31.0627 8.35633C30.9293 8.27503 30.7811 8.2212 30.6267 8.198C30.4722 8.1748 30.3147 8.1827 30.1634 8.22124C30.012 8.25977 29.8699 8.32817 29.7454 8.42241C29.6209 8.51665 29.5165 8.63482 29.4382 8.76999C29.36 8.90516 29.3096 9.0546 29.29 9.20953C29.2704 9.36446 29.2819 9.52175 29.3239 9.67215C29.3659 9.82256 29.4376 9.96305 29.5347 10.0854C29.6317 10.2077 29.7523 10.3094 29.8892 10.3845ZM31.1236 20.3532L34.1892 22.5985C34.4399 22.7823 34.6074 23.0582 34.6547 23.3654C34.702 23.6726 34.6254 23.9861 34.4416 24.2368C34.3506 24.3609 34.236 24.4659 34.1044 24.5458C33.9729 24.6257 33.8268 24.6788 33.6747 24.7023C33.3675 24.7496 33.054 24.6729 32.8033 24.4891L28.447 21.2985C28.2985 21.1897 28.1777 21.0474 28.0944 20.8831C28.0112 20.7189 27.9678 20.5373 27.9678 20.3532C27.9678 20.1691 28.0112 19.9875 28.0944 19.8233C28.1777 19.659 28.2985 19.5167 28.447 19.4079L32.8033 16.2157C33.054 16.0319 33.3675 15.9553 33.6747 16.0026C33.9819 16.0499 34.2578 16.2173 34.4416 16.468C34.6254 16.7188 34.702 17.0322 34.6547 17.3395C34.6074 17.6467 34.4399 17.9225 34.1892 18.1063L31.1236 20.3532ZM16.9033 20.3532L13.8377 18.1063C13.7101 18.0168 13.6017 17.9027 13.5187 17.7707C13.4358 17.6387 13.38 17.4916 13.3546 17.3378C13.3293 17.184 13.3349 17.0267 13.3711 16.8751C13.4072 16.7234 13.4733 16.5806 13.5654 16.4548C13.6575 16.3291 13.7737 16.2229 13.9073 16.1426C14.041 16.0624 14.1892 16.0096 14.3435 15.9873C14.4978 15.965 14.6549 15.9738 14.8058 16.013C14.9566 16.0522 15.0982 16.1211 15.222 16.2157L19.5783 19.4079C19.7268 19.5167 19.8476 19.659 19.9309 19.8233C20.0142 19.9875 20.0576 20.1691 20.0576 20.3532C20.0576 20.5373 20.0142 20.7189 19.9309 20.8831C19.8476 21.0474 19.7268 21.1897 19.5783 21.2985L15.222 24.4891C15.0982 24.5837 14.9566 24.6527 14.8058 24.6919C14.6549 24.7311 14.4978 24.7398 14.3435 24.7176C14.1892 24.6953 14.041 24.6425 13.9073 24.5622C13.7737 24.4819 13.6575 24.3758 13.5654 24.25C13.4733 24.1243 13.4072 23.9814 13.3711 23.8298C13.3349 23.6782 13.3293 23.5209 13.3546 23.3671C13.38 23.2133 13.4358 23.0661 13.5187 22.9341C13.6017 22.8022 13.7101 22.6881 13.8377 22.5985L16.9033 20.3532ZM23.8205 34.3907L27.0689 31.8438C27.2753 31.6819 27.53 31.5939 27.7924 31.5939C28.0547 31.5939 28.3094 31.6819 28.5158 31.8438L31.7845 34.4063L35.0486 31.847C35.2933 31.6553 35.6041 31.5687 35.9127 31.6062C36.2212 31.6437 36.5023 31.8023 36.6939 32.047C36.8856 32.2917 36.9722 32.6025 36.9347 32.911C36.8972 33.2196 36.7386 33.5006 36.4939 33.6923L32.508 36.8173C32.3016 36.9792 32.0469 37.0672 31.7845 37.0672C31.5222 37.0672 31.2675 36.9792 31.0611 36.8173L27.7924 34.2548L24.5439 36.8016C24.3375 36.9636 24.0828 37.0516 23.8205 37.0516C23.5582 37.0516 23.3034 36.9636 23.097 36.8016L19.8533 34.2579L16.5892 36.8173C16.383 36.9788 16.1286 37.0666 15.8666 37.0666C15.6046 37.0666 15.3502 36.9788 15.1439 36.8173L11.1564 33.6923C10.9117 33.5004 10.7533 33.2192 10.7159 32.9105C10.6785 32.6018 10.7653 32.2909 10.9572 32.0462C11.1491 31.8015 11.4303 31.643 11.739 31.6056C12.0477 31.5683 12.3586 31.6551 12.6033 31.847L15.8674 34.4063L19.1299 31.847C19.3362 31.685 19.591 31.597 19.8533 31.597C20.1156 31.597 20.3704 31.685 20.5767 31.847L23.8205 34.3907Z" fill="#3C4D4D"/>
<defs>
<radialGradient id="paint0_radial_5_280" cx="0" cy="0" r="1" gradientUnits="userSpaceOnUse" gradientTransform="translate(24 23.394) scale(23.0469)">
<stop stop-color="#FBEF57"/>
<stop offset="1" stop-color="#FBC02A"/>
</radialGradient>
</defs>
</svg>
