<svg viewBox="0 0 40 40" fill="none" xmlns="http://www.w3.org/2000/svg">
  <g clip-path="url(#clip0_7_491)">
    <path d="M31.6667 6.66667H29.8333C29.4465 4.78569 28.423 3.09558 26.9354 1.8812C25.4478 0.666817 23.587 0.00242421 21.6667 0L18.3333 0C16.413 0.00242421 14.5522 0.666817 13.0646 1.8812C11.577 3.09558 10.5535 4.78569 10.1667 6.66667H8.33333C6.12401 6.66931 4.00593 7.54814 2.4437 9.11037C0.88147 10.6726 0.00264643 12.7907 0 15L0 31.6667C0.00264643 33.876 0.88147 35.9941 2.4437 37.5563C4.00593 39.1185 6.12401 39.9974 8.33333 40H31.6667C33.876 39.9974 35.9941 39.1185 37.5563 37.5563C39.1185 35.9941 39.9974 33.876 40 31.6667V15C39.9974 12.7907 39.1185 10.6726 37.5563 9.11037C35.9941 7.54814 33.876 6.66931 31.6667 6.66667ZM18.3333 3.33333H21.6667C22.6971 3.3376 23.701 3.66014 24.5412 4.25681C25.3813 4.85349 26.0165 5.69515 26.36 6.66667H13.64C13.9835 5.69515 14.6187 4.85349 15.4588 4.25681C16.299 3.66014 17.3029 3.3376 18.3333 3.33333ZM8.33333 10H31.6667C32.9927 10 34.2645 10.5268 35.2022 11.4645C36.1399 12.4021 36.6667 13.6739 36.6667 15V20H3.33333V15C3.33333 13.6739 3.86012 12.4021 4.7978 11.4645C5.73548 10.5268 7.00725 10 8.33333 10ZM31.6667 36.6667H8.33333C7.00725 36.6667 5.73548 36.1399 4.7978 35.2022C3.86012 34.2645 3.33333 32.9927 3.33333 31.6667V23.3333H18.3333V25C18.3333 25.442 18.5089 25.8659 18.8215 26.1785C19.134 26.4911 19.558 26.6667 20 26.6667C20.442 26.6667 20.8659 26.4911 21.1785 26.1785C21.4911 25.8659 21.6667 25.442 21.6667 25V23.3333H36.6667V31.6667C36.6667 32.9927 36.1399 34.2645 35.2022 35.2022C34.2645 36.1399 32.9927 36.6667 31.6667 36.6667Z" fill="white"/>
  </g>
  <defs>
    <clipPath id="clip0_7_491">
      <rect width="40" height="40" fill="white"/>
    </clipPath>
  </defs>
</svg>
