<svg viewBox="0 0 38 42" fill="none" xmlns="http://www.w3.org/2000/svg">
  <path d="M4.41667 41.8333C3.27083 41.8333 2.28993 41.4254 1.47396 40.6094C0.657986 39.7934 0.25 38.8125 0.25 37.6667V8.5C0.25 7.35417 0.657986 6.37327 1.47396 5.55729C2.28993 4.74132 3.27083 4.33333 4.41667 4.33333H6.5V2.25C6.5 1.65972 6.69965 1.16493 7.09896 0.765626C7.49826 0.366321 7.99306 0.166668 8.58333 0.166668C9.17361 0.166668 9.6684 0.366321 10.0677 0.765626C10.467 1.16493 10.6667 1.65972 10.6667 2.25V4.33333H27.3333V2.25C27.3333 1.65972 27.533 1.16493 27.9323 0.765626C28.3316 0.366321 28.8264 0.166668 29.4167 0.166668C30.0069 0.166668 30.5017 0.366321 30.901 0.765626C31.3003 1.16493 31.5 1.65972 31.5 2.25V4.33333H33.5833C34.7292 4.33333 35.7101 4.74132 36.526 5.55729C37.342 6.37327 37.75 7.35417 37.75 8.5V37.6667C37.75 38.8125 37.342 39.7934 36.526 40.6094C35.7101 41.4254 34.7292 41.8333 33.5833 41.8333H4.41667ZM4.41667 37.6667H33.5833V16.8333H4.41667V37.6667ZM19 25.1667C18.4097 25.1667 17.9149 24.967 17.5156 24.5677C17.1163 24.1684 16.9167 23.6736 16.9167 23.0833C16.9167 22.4931 17.1163 21.9983 17.5156 21.599C17.9149 21.1997 18.4097 21 19 21C19.5903 21 20.0851 21.1997 20.4844 21.599C20.8837 21.9983 21.0833 22.4931 21.0833 23.0833C21.0833 23.6736 20.8837 24.1684 20.4844 24.5677C20.0851 24.967 19.5903 25.1667 19 25.1667ZM10.6667 25.1667C10.0764 25.1667 9.5816 24.967 9.18229 24.5677C8.78299 24.1684 8.58333 23.6736 8.58333 23.0833C8.58333 22.4931 8.78299 21.9983 9.18229 21.599C9.5816 21.1997 10.0764 21 10.6667 21C11.2569 21 11.7517 21.1997 12.151 21.599C12.5503 21.9983 12.75 22.4931 12.75 23.0833C12.75 23.6736 12.5503 24.1684 12.151 24.5677C11.7517 24.967 11.2569 25.1667 10.6667 25.1667ZM27.3333 25.1667C26.7431 25.1667 26.2483 24.967 25.849 24.5677C25.4497 24.1684 25.25 23.6736 25.25 23.0833C25.25 22.4931 25.4497 21.9983 25.849 21.599C26.2483 21.1997 26.7431 21 27.3333 21C27.9236 21 28.4184 21.1997 28.8177 21.599C29.217 21.9983 29.4167 22.4931 29.4167 23.0833C29.4167 23.6736 29.217 24.1684 28.8177 24.5677C28.4184 24.967 27.9236 25.1667 27.3333 25.1667ZM19 33.5C18.4097 33.5 17.9149 33.3004 17.5156 32.901C17.1163 32.5017 16.9167 32.0069 16.9167 31.4167C16.9167 30.8264 17.1163 30.3316 17.5156 29.9323C17.9149 29.533 18.4097 29.3333 19 29.3333C19.5903 29.3333 20.0851 29.533 20.4844 29.9323C20.8837 30.3316 21.0833 30.8264 21.0833 31.4167C21.0833 32.0069 20.8837 32.5017 20.4844 32.901C20.0851 33.3004 19.5903 33.5 19 33.5ZM10.6667 33.5C10.0764 33.5 9.5816 33.3004 9.18229 32.901C8.78299 32.5017 8.58333 32.0069 8.58333 31.4167C8.58333 30.8264 8.78299 30.3316 9.18229 29.9323C9.5816 29.533 10.0764 29.3333 10.6667 29.3333C11.2569 29.3333 11.7517 29.533 12.151 29.9323C12.5503 30.3316 12.75 30.8264 12.75 31.4167C12.75 32.0069 12.5503 32.5017 12.151 32.901C11.7517 33.3004 11.2569 33.5 10.6667 33.5ZM27.3333 33.5C26.7431 33.5 26.2483 33.3004 25.849 32.901C25.4497 32.5017 25.25 32.0069 25.25 31.4167C25.25 30.8264 25.4497 30.3316 25.849 29.9323C26.2483 29.533 26.7431 29.3333 27.3333 29.3333C27.9236 29.3333 28.4184 29.533 28.8177 29.9323C29.217 30.3316 29.4167 30.8264 29.4167 31.4167C29.4167 32.0069 29.217 32.5017 28.8177 32.901C28.4184 33.3004 27.9236 33.5 27.3333 33.5Z" fill="#5E46E4"/>
</svg>
