<svg viewBox="0 0 30 32" fill="none" xmlns="http://www.w3.org/2000/svg">
  <path d="M29.1169 19.198C28.4878 18.2194 27.859 17.2757 27.2298 16.2975C27.0903 16.0879 27.0903 15.9481 27.2298 15.7385C27.859 14.7951 28.4529 13.8514 29.082 12.9081C29.8158 11.79 29.4314 10.7065 28.1732 10.2524C27.1252 9.86805 26.0769 9.44885 25.0286 9.06453C24.819 8.99445 24.714 8.85461 24.714 8.61013C24.6791 7.45717 24.6094 6.30389 24.5393 5.18581C24.4695 3.96277 23.5262 3.26389 22.338 3.57845C21.2199 3.85781 20.1018 4.17237 19.0183 4.48693C18.7738 4.55669 18.6343 4.48693 18.4593 4.31221C17.7604 3.40341 17.0266 2.53013 16.3281 1.65653C15.5591 0.678292 14.371 0.678292 13.5674 1.65653C12.8686 2.53013 12.1348 3.40373 11.4708 4.27733C11.2961 4.52181 11.1214 4.55669 10.842 4.48693C9.75881 4.17237 8.67561 3.89301 7.90665 3.68309C6.40425 3.33365 5.49577 3.92789 5.42569 5.18581C5.35593 6.33877 5.28617 7.49205 5.25097 8.68021C5.25097 8.92469 5.14633 9.02933 4.93673 9.13429L1.68713 10.3922C0.568727 10.8466 0.219287 11.9298 0.883287 12.9429C1.51241 13.9215 2.14121 14.8649 2.77033 15.8431C2.90985 16.053 2.90985 16.1925 2.77033 16.4373C2.10947 17.4141 1.4687 18.4043 0.848407 19.4073C0.254487 20.3509 0.638807 21.469 1.68681 21.8882C2.77033 22.3074 3.88841 22.7266 4.97161 23.1461C5.21609 23.2162 5.28617 23.3557 5.28617 23.6005C5.32105 24.7186 5.46089 25.8021 5.46089 26.9199C5.46089 28.0383 6.43913 29.0514 7.80201 28.6322C8.88521 28.2828 9.96841 28.0383 11.0516 27.7234C11.2612 27.6537 11.401 27.6889 11.5409 27.8985C12.2746 28.8069 12.9735 29.6805 13.7073 30.589C14.5108 31.5673 15.6641 31.5673 16.4327 30.589C17.1665 29.6802 17.8654 28.8066 18.5991 27.8985C18.739 27.7237 18.8436 27.6537 19.0884 27.7237C20.2065 28.0383 21.3246 28.3177 22.443 28.6322C23.5959 28.9468 24.5742 28.2479 24.6094 27.0597C24.6791 25.9068 24.7489 24.7535 24.7841 23.5653C24.7841 23.286 24.9236 23.1813 25.1335 23.1112C26.1992 22.7188 27.2591 22.3111 28.313 21.8882C29.4314 21.3292 29.7809 20.2114 29.1169 19.198ZM20.7655 13.4668L13.777 20.4556C13.6023 20.63 13.3578 20.7698 13.113 20.8047C13.0433 20.8047 12.9383 20.8399 12.8686 20.8399C12.554 20.8399 12.2046 20.7001 11.9601 20.4553L9.09481 17.59C8.85975 17.353 8.72785 17.0327 8.72785 16.6989C8.72785 16.3651 8.85975 16.0449 9.09481 15.8079C9.33179 15.5728 9.65206 15.4409 9.98585 15.4409C10.3196 15.4409 10.6399 15.5728 10.8769 15.8079L12.8337 17.7647L18.9137 11.6847C19.1507 11.4496 19.4709 11.3177 19.8047 11.3177C20.1385 11.3177 20.4588 11.4496 20.6958 11.6847C21.2548 12.174 21.2548 12.9772 20.7655 13.4668Z" fill="#5E46E4"/>
</svg>
