<svg viewBox="0 0 48 48" fill="none" xmlns="http://www.w3.org/2000/svg">
<path fill-rule="evenodd" clip-rule="evenodd" d="M18.7281 7.5875L14.65 7.63594C14.3509 7.63902 14.062 7.5278 13.8422 7.325L12.2969 5.9C12.1618 5.77537 12.0579 5.62071 11.9936 5.44851C11.9294 5.27632 11.9065 5.09142 11.9269 4.90876C11.9472 4.72609 12.0103 4.55078 12.111 4.39699C12.2116 4.24319 12.347 4.11523 12.5063 4.02344C15.8906 2.07031 19.8156 0.953125 24 0.953125C28.1844 0.953125 32.1094 2.07031 35.4938 4.02344C35.6533 4.115 35.7889 4.24286 35.8898 4.39666C35.9906 4.55046 36.0538 4.72586 36.0742 4.90864C36.0946 5.09141 36.0716 5.27643 36.0072 5.44867C35.9427 5.62091 35.8385 5.77554 35.7031 5.9L34.1578 7.325C33.938 7.5278 33.6491 7.63902 33.35 7.63594L29.2719 7.5875L30.975 11.2937C31.0984 11.5656 31.1156 11.8734 31.0203 12.1578L29.7141 16.0203L33.7641 15.5469C34.0612 15.5121 34.3604 15.5926 34.6 15.7719L37.8719 18.2062L38.6719 14.2078C38.7308 13.9148 38.8996 13.6553 39.1437 13.4828L41.9141 11.5188C42.0443 11.4258 42.1923 11.3606 42.3489 11.3271C42.5054 11.2937 42.6671 11.2928 42.824 11.3244C42.9809 11.3561 43.1296 11.4196 43.261 11.5111C43.3923 11.6026 43.5034 11.7201 43.5875 11.8562C45.8543 15.5007 47.0529 19.7081 47.0469 24C47.0469 36.7203 36.7203 47.0469 24 47.0469C11.2797 47.0469 0.953125 36.7203 0.953125 24C0.953125 19.5453 2.22031 15.3828 4.4125 11.8562C4.49657 11.7201 4.60771 11.6026 4.73904 11.5111C4.87038 11.4196 5.0191 11.3561 5.176 11.3244C5.33289 11.2928 5.49461 11.2937 5.65114 11.3271C5.80766 11.3606 5.95565 11.4258 6.08594 11.5188L8.85625 13.4828C9.1 13.6547 9.26875 13.9141 9.32812 14.2078L10.1281 18.2062L13.4 15.7719C13.6396 15.5926 13.9388 15.5121 14.2359 15.5469L18.2859 16.0203L16.9797 12.1578C16.8848 11.8744 16.901 11.5656 17.025 11.2937L18.7281 7.5875Z" fill="url(#paint0_radial_5_174)"/>
<path fill-rule="evenodd" clip-rule="evenodd" d="M7.25 25.3266C7.30435 25.0622 7.44831 24.8246 7.65755 24.6541C7.8668 24.4836 8.1285 24.3905 8.39844 24.3906H39.6484C39.9592 24.3906 40.2573 24.5141 40.4771 24.7339C40.6968 24.9536 40.8203 25.2517 40.8203 25.5625C40.8203 33.9344 33.3266 40.7969 24.0234 40.7969C14.7203 40.7969 7.22656 33.9344 7.22656 25.5625L7.24063 25.3844L7.25 25.3266Z" fill="#3C4D4D"/>
<path fill-rule="evenodd" clip-rule="evenodd" d="M12.9501 35.6281C12.7819 35.8758 12.715 36.1784 12.7629 36.4739C12.8109 36.7694 12.9701 37.0354 13.2079 37.2172C16.1251 39.4469 19.9001 40.7969 24.0235 40.7969C28.1469 40.7969 31.9219 39.4469 34.8391 37.2172C35.0769 37.0354 35.2361 36.7694 35.2841 36.4739C35.332 36.1784 35.2651 35.8758 35.0969 35.6281C33.1266 32.7234 28.9235 30.6406 24.0235 30.6406C19.1219 30.6406 14.9204 32.7234 12.9501 35.6281Z" fill="#C32325"/>
<path fill-rule="evenodd" clip-rule="evenodd" d="M32.9109 5.2858L36.9297 1.58268C37.0748 1.44842 37.2516 1.35312 37.4436 1.30568C37.6355 1.25823 37.8363 1.26019 38.0273 1.31137C38.2183 1.36255 38.3932 1.46127 38.5357 1.59834C38.6782 1.7354 38.7836 1.90633 38.8422 2.09518L40.4688 7.3108L45.2328 9.98736C45.4046 10.0846 45.5491 10.2236 45.653 10.3914C45.7569 10.5593 45.8168 10.7506 45.8272 10.9477C45.8377 11.1449 45.7983 11.3414 45.7127 11.5193C45.6271 11.6972 45.4981 11.8506 45.3375 11.9655L40.8797 15.1249L39.8063 20.4827C39.7667 20.6761 39.6791 20.8565 39.5514 21.0072C39.4237 21.1578 39.2601 21.2738 39.0757 21.3445C38.8914 21.4152 38.6921 21.4383 38.4965 21.4117C38.3008 21.385 38.115 21.3095 37.9563 21.192L33.575 17.9296L28.1469 18.5639C27.9507 18.5867 27.7519 18.5595 27.569 18.4848C27.3861 18.4102 27.2251 18.2905 27.1008 18.137C26.9766 17.9834 26.8932 17.801 26.8583 17.6065C26.8235 17.4121 26.8384 17.212 26.9016 17.0249L28.65 11.8483L26.3688 6.88268C26.2862 6.703 26.2505 6.50536 26.2649 6.30816C26.2793 6.11096 26.3434 5.92061 26.4511 5.75483C26.5589 5.58905 26.7069 5.45323 26.8812 5.36002C27.0556 5.26682 27.2507 5.21924 27.4485 5.22174L32.9109 5.2858ZM7.53126 7.3108L9.15782 2.09518C9.21638 1.90633 9.32183 1.7354 9.46433 1.59834C9.60683 1.46127 9.78172 1.36255 9.9727 1.31137C10.1637 1.26019 10.3645 1.25823 10.5565 1.30568C10.7484 1.35312 10.9252 1.44842 11.0703 1.58268L15.0891 5.2858L20.5516 5.22174C20.7493 5.21924 20.9444 5.26682 21.1188 5.36002C21.2932 5.45323 21.4411 5.58905 21.5489 5.75483C21.6567 5.92061 21.7207 6.11096 21.7351 6.30816C21.7495 6.50536 21.7138 6.703 21.6313 6.88268L19.35 11.8483L21.0984 17.0249C21.1625 17.212 21.1781 17.4124 21.1436 17.6072C21.1091 17.802 21.0258 17.9849 20.9013 18.1387C20.7769 18.2925 20.6154 18.4122 20.4321 18.4866C20.2488 18.5609 20.0496 18.5876 19.8531 18.5639L14.425 17.9296L10.0438 21.192C9.88526 21.3103 9.69939 21.3866 9.50348 21.4137C9.30757 21.4408 9.10799 21.4179 8.92332 21.3471C8.73865 21.2763 8.57491 21.1599 8.44735 21.0087C8.31978 20.8576 8.23255 20.6766 8.19376 20.4827L7.12032 15.1249L2.66251 11.9655C2.50196 11.8506 2.37294 11.6972 2.28734 11.5193C2.20175 11.3414 2.16235 11.1449 2.17278 10.9477C2.18322 10.7506 2.24314 10.5593 2.34703 10.3914C2.45092 10.2236 2.59542 10.0846 2.7672 9.98736L7.53126 7.3108Z" fill="#FF921D"/>
<defs>
<radialGradient id="paint0_radial_5_174" cx="0" cy="0" r="1" gradientUnits="userSpaceOnUse" gradientTransform="translate(24 24) scale(23.0469)">
<stop stop-color="#FBEF57"/>
<stop offset="1" stop-color="#FBC02A"/>
</radialGradient>
</defs>
</svg>
