<svg viewBox="0 0 40 40" fill="none" xmlns="http://www.w3.org/2000/svg">
  <g clip-path="url(#clip0_7_506)">
    <path d="M23.3333 10C23.3333 4.485 18.8483 0 13.3333 0C7.81833 0 3.33333 4.485 3.33333 10C3.33333 15.515 7.81833 20 13.3333 20C18.8483 20 23.3333 15.515 23.3333 10ZM13.3333 16.6667C9.65667 16.6667 6.66667 13.6767 6.66667 10C6.66667 6.32333 9.65667 3.33333 13.3333 3.33333C17.01 3.33333 20 6.32333 20 10C20 13.6767 17.01 16.6667 13.3333 16.6667ZM11.5967 25.0083C11.86 25.89 11.3567 26.8183 10.475 27.0817C6.27 28.3317 3.33333 32.275 3.33333 36.6667V38.3333C3.33333 39.2533 2.58667 40 1.66667 40C0.746667 40 0 39.2533 0 38.3333V36.6667C0 30.81 3.91667 25.555 9.525 23.8867C10.405 23.625 11.3333 24.1267 11.5967 25.0083Z" fill="white"/>
    <path d="M32.5 29H31V26H32.5C33.3267 26 34 26.6733 34 27.5C34 28.3267 33.3267 29 32.5 29ZM40 25V35C40 37.7617 37.7617 40 35 40H20C17.2383 40 15 37.7617 15 35V25C15 22.2383 17.2383 20 20 20H35C37.7617 20 40 22.2383 40 25ZM25.3333 23.3333C24.5967 23.3333 24 23.93 24 24.6667V28.6583H21V24.6667C21 23.93 20.4033 23.3333 19.6667 23.3333C18.93 23.3333 18.3333 23.93 18.3333 24.6667V35.3333C18.3333 36.07 18.93 36.6667 19.6667 36.6667C20.4033 36.6667 21 36.07 21 35.3333V31.325H24V35.3333C24 36.07 24.5967 36.6667 25.3333 36.6667C26.07 36.6667 26.6667 36.07 26.6667 35.3333V24.6667C26.6667 23.93 26.07 23.3333 25.3333 23.3333ZM34.8883 30.9067C36.0933 30.06 36.835 28.5967 36.6333 26.97C36.37 24.8467 34.4167 23.3333 32.2783 23.3333H29.6667C28.93 23.3333 28.3333 23.93 28.3333 24.6667V35.3333C28.3333 36.07 28.93 36.6667 29.6667 36.6667C30.4033 36.6667 31 36.07 31 35.3333V31.6667H32.3067L33.4817 35.705C33.6467 36.275 34.1683 36.6667 34.7617 36.6667H34.8667C35.7617 36.6667 36.4033 35.8017 36.1417 34.945L34.91 30.895C34.9483 30.8667 34.95 30.8683 34.98 30.8467C34.9483 30.8667 34.9283 30.8817 34.8883 30.905V30.9067Z" fill="white"/>
  </g>
  <defs>
    <clipPath id="clip0_7_506">
      <rect width="40" height="40" fill="white"/>
    </clipPath>
  </defs>
</svg>
