<svg viewBox="0 0 35 91" fill="none" xmlns="http://www.w3.org/2000/svg">
  <path d="M3.7948 88.0592C3.56025 88.0218 3.3302 87.9602 3.10839 87.8753C2.69077 87.7293 2.33275 87.45 2.08953 87.0805C1.83189 86.6082 1.75426 86.0586 1.87103 85.5335C1.90384 85.2514 1.93666 84.9694 1.97317 84.7054C2.03236 84.1652 2.09739 83.6352 2.16613 83.1232C2.30789 82.0833 2.43896 81.0834 2.56517 80.1335C2.84155 78.24 3.1145 76.5509 3.37488 75.1322C3.90147 72.305 4.38521 70.5954 4.70718 70.6389C5.02914 70.6824 5.14144 72.4661 5.05283 75.3509C5.00852 76.7933 4.91546 78.5134 4.78332 80.4113C4.69914 81.3639 4.62608 82.3709 4.53435 83.4156C4.49506 83.924 4.45025 84.4424 4.39994 84.9707C4.64612 84.7414 4.90399 84.525 5.1725 84.3223C6.21203 83.4117 8.04676 82.0556 10.8414 79.6393C14.8327 76.2175 18.4434 72.3753 21.611 68.1793C23.9003 65.1066 25.8586 61.8005 27.4531 58.3161C28.327 56.394 29.074 54.4167 29.6893 52.3969C30.3097 50.278 30.7906 48.1208 31.1289 45.9391C31.445 43.713 31.598 41.4667 31.5867 39.2183C31.5673 36.9391 31.3582 34.6655 30.9614 32.4211C30.1861 27.9727 28.6192 23.6994 26.3352 19.8042C25.232 17.9538 23.9885 16.1907 22.6157 14.5304C21.3043 12.9755 19.8783 11.5211 18.3495 10.1794C15.7507 7.85048 12.859 5.87072 9.74781 4.29025C7.61124 3.24146 5.39574 2.3618 3.12166 1.65935C2.24852 1.4952 1.39886 1.22445 0.591736 0.853142C1.48613 0.80806 2.38228 0.895401 3.25113 1.11234C5.65196 1.59529 7.99605 2.32658 10.2456 3.29445C13.579 4.7525 16.6936 6.66668 19.5001 8.98208C21.1559 10.3304 22.7058 11.8039 24.1361 13.3894C25.6474 15.0911 27.019 16.9119 28.2376 18.834C30.7739 22.892 32.5518 27.3771 33.4847 32.0707C33.9573 34.4346 34.23 36.8342 34.3001 39.2439C34.3611 41.624 34.2406 44.0054 33.9397 46.3672C33.352 50.8815 32.1112 55.2863 30.2563 59.4436C28.6124 63.104 26.5727 66.5735 24.1735 69.7898C20.8899 74.1783 17.0574 78.1278 12.7696 81.5418C10.7925 83.1419 8.69055 84.5811 6.48375 85.8456L6.23503 85.9757C10.1001 86.5256 13.9159 87.3792 17.6468 88.5287C20.927 89.536 22.8559 90.4463 22.7645 90.7555C22.5934 91.394 14.463 89.301 4.32056 88.1402L3.7948 88.0592Z" fill="#5E46E4"/>
</svg>
