<svg viewBox="0 0 40 40" fill="none" xmlns="http://www.w3.org/2000/svg">
  <g clip-path="url(#clip0_7_501)">
    <path d="M16.6666 3.33333C16.6666 1.49167 18.1583 0 19.9999 0C21.8416 0 23.3333 1.49167 23.3333 3.33333C23.3333 5.175 21.8416 6.66667 19.9999 6.66667C18.1583 6.66667 16.6666 5.175 16.6666 3.33333ZM15.5866 14.9667C16.4983 15.1367 17.3683 14.565 17.5533 13.665C17.7883 12.5067 18.8183 11.6667 20.0016 11.6667C21.1849 11.6667 22.2149 12.5067 22.4499 13.665C22.6116 14.455 23.3066 15 24.0816 15C24.1899 15 24.3033 14.9883 24.4149 14.9667C25.3166 14.7833 25.8999 13.9033 25.7166 13C25.1666 10.295 22.7633 8.33167 19.9999 8.33167C17.2366 8.33167 14.8333 10.295 14.2833 13C14.1016 13.9033 14.6833 14.7817 15.5849 14.9667H15.5866ZM34.1666 10C36.0083 10 37.4999 8.50833 37.4999 6.66667C37.4999 4.825 36.0083 3.33333 34.1666 3.33333C32.3249 3.33333 30.8333 4.825 30.8333 6.66667C30.8333 8.50833 32.3249 10 34.1666 10ZM8.28159 16.9983C8.44325 17.7883 9.13826 18.3333 9.91325 18.3333C10.0216 18.3333 10.1349 18.3217 10.2466 18.3C11.1483 18.1167 11.7316 17.2367 11.5483 16.3333C10.9983 13.6283 8.59492 11.665 5.83159 11.665C3.06826 11.665 0.666589 13.63 0.116589 16.335C-0.0650777 17.2383 0.516589 18.1167 1.41826 18.3017C2.32992 18.475 3.19992 17.9 3.38492 17C3.61992 15.8417 4.64992 15.0017 5.83326 15.0017C7.01659 15.0017 8.04659 15.84 8.28159 16.9983ZM5.83326 10C7.67492 10 9.16659 8.50833 9.16659 6.66667C9.16659 4.825 7.67492 3.33333 5.83326 3.33333C3.99159 3.33333 2.49992 4.825 2.49992 6.66667C2.49992 8.50833 3.99159 10 5.83326 10ZM39.8833 16.335C39.3333 13.63 36.9299 11.6667 34.1666 11.6667C31.4033 11.6667 28.9999 13.63 28.4499 16.335C28.2683 17.2383 28.8499 18.1167 29.7516 18.3017C30.6633 18.475 31.5333 17.9 31.7183 17C31.9533 15.8417 32.9833 15.0017 34.1666 15.0017C35.3499 15.0017 36.3799 15.8417 36.6149 17C36.7766 17.79 37.4716 18.335 38.2466 18.335C38.3549 18.335 38.4683 18.3233 38.5799 18.3017C39.4816 18.1183 40.0666 17.2383 39.8833 16.335ZM32.9383 30.92L25.0116 27.9483V20.18C25.0116 17.6533 23.2183 15.455 20.8399 15.0683C19.3749 14.8317 17.8933 15.2383 16.7749 16.1917C15.6549 17.1433 15.0116 18.5317 15.0116 20.0017V32.6067L13.3199 31.26C13.3083 31.25 13.2916 31.2483 13.2799 31.24C11.2616 29.4867 8.19826 29.6167 6.35992 31.5867C4.47659 33.6 4.58326 36.77 6.57659 38.6367L7.50659 39.5333C7.81659 39.8333 8.23159 40 8.66325 40C10.1633 40 10.8999 38.175 9.81992 37.1333L8.87325 36.22C8.20159 35.59 8.16659 34.5317 8.79659 33.86C9.42159 33.19 10.4766 33.1583 11.1466 33.78C11.1633 33.795 11.1849 33.7983 11.2016 33.8133C11.2199 33.8283 14.0999 36.1367 14.0999 36.1367C14.8933 36.7683 15.9533 36.8867 16.8666 36.4483C17.7799 36.0067 18.3483 35.1033 18.3483 34.09V20C18.3483 19.51 18.5633 19.0467 18.9366 18.7283C19.3166 18.4083 19.8033 18.2717 20.3066 18.3567C21.0783 18.4817 21.6816 19.2817 21.6816 20.1783V29.1017C21.6816 29.7967 22.1133 30.4183 22.7616 30.6633L31.7699 34.04C33.6199 34.7333 34.8899 36.455 35.0049 38.43C35.0566 39.315 35.7916 39.9983 36.6666 39.9983C36.6999 39.9983 36.7316 39.9983 36.7666 39.995C37.6849 39.9417 38.3866 39.1533 38.3316 38.2333C38.1399 34.945 36.0216 32.0733 32.9399 30.9167L32.9383 30.92Z" fill="white"/>
  </g>
  <defs>
    <clipPath id="clip0_7_501">
      <rect width="40" height="40" fill="white"/>
    </clipPath>
  </defs>
</svg>
