<svg viewBox="0 0 35 91" fill="none" xmlns="http://www.w3.org/2000/svg">
  <path d="M30.9611 87.6974C31.1956 87.66 31.4257 87.5984 31.6475 87.5135C32.0651 87.3675 32.4231 87.0882 32.6663 86.7187C32.924 86.2464 33.0016 85.6968 32.8848 85.1716C32.852 84.8896 32.8192 84.6075 32.7827 84.3436C32.7235 83.8034 32.6585 83.2733 32.5897 82.7614C32.448 81.7215 32.3169 80.7216 32.1907 79.7716C31.9143 77.8782 31.6414 76.1891 31.381 74.7704C30.8544 71.9432 30.3706 70.2336 30.0487 70.2771C29.7267 70.3206 29.6144 72.1043 29.703 74.9891C29.7473 76.4314 29.8404 78.1516 29.9725 80.0495C30.0567 81.0021 30.1298 82.0091 30.2215 83.0538C30.2608 83.5622 30.3056 84.0806 30.3559 84.6089C30.1097 84.3796 29.8519 84.1631 29.5834 83.9604C28.5438 83.0499 26.7091 81.6938 23.9145 79.2775C19.9232 75.8557 16.3124 72.0135 13.1449 67.8175C10.8555 64.7447 8.89726 61.4386 7.30271 57.9543C6.4289 56.0321 5.6819 54.0548 5.06652 52.0351C4.44615 49.9162 3.96529 47.759 3.627 45.5773C3.31082 43.3512 3.15782 41.1049 3.1692 38.8564C3.18852 36.5773 3.39768 34.3037 3.79447 32.0593C4.56978 27.6109 6.13664 23.3376 8.42066 19.4424C9.52386 17.5919 10.7673 15.8288 12.1402 14.1686C13.4516 12.6137 14.8776 11.1593 16.4063 9.81754C19.0052 7.48866 21.8968 5.50891 25.0081 3.92844C27.1446 2.87965 29.3601 1.99998 31.6342 1.29753C32.5073 1.13339 33.357 0.862633 34.1641 0.491326C33.2697 0.446244 32.3736 0.533584 31.5047 0.750525C29.1039 1.23348 26.7598 1.96477 24.5103 2.93263C21.1769 4.39069 18.0622 6.30487 15.2558 8.62026C13.5999 9.96859 12.05 11.442 10.6197 13.0276C9.10845 14.7293 7.73685 16.55 6.51828 18.4722C3.98196 22.5302 2.20404 27.0153 1.27114 31.7089C0.798608 34.0728 0.525853 36.4723 0.45578 38.882C0.394753 41.2622 0.515222 43.6435 0.816136 46.0054C1.40384 50.5196 2.64463 54.9245 4.49958 59.0818C6.14345 62.7422 8.18321 66.2117 10.5824 69.428C13.8659 73.8165 17.6985 77.766 21.9863 81.18C23.9633 82.7801 26.0653 84.2193 28.2721 85.4837L28.5208 85.6138C24.6557 86.1637 20.84 87.0174 17.109 88.1669C13.8289 89.1742 11.9 90.0845 11.9914 90.3936C12.1625 91.0321 20.2929 88.9391 30.4353 87.7784L30.9611 87.6974Z" fill="#5E46E4"/>
</svg>
