<svg viewBox="0 0 28 28" fill="none" xmlns="http://www.w3.org/2000/svg">
<circle cx="14" cy="14" r="14" fill="#D9D9D9"/>
<circle cx="14" cy="14" r="14" fill="url(#paint0_linear_34_1198)"/>
<path d="M18.0647 9.59121L12.7124 15.0523L9.93781 12.2237C9.64845 11.9286 9.25608 11.7629 8.84696 11.7629C8.43785 11.7629 8.04548 11.9286 7.75611 12.2237C7.4669 12.519 7.30444 12.9193 7.30444 13.3367C7.30444 13.7542 7.4669 14.1545 7.75611 14.4497L11.6485 18.4212C11.9301 18.7083 12.312 18.8695 12.7101 18.8695C13.1081 18.8695 13.49 18.7083 13.7716 18.4212L20.2441 11.8172C20.5333 11.522 20.6957 11.1217 20.6957 10.7042C20.6957 10.2868 20.5333 9.88646 20.2441 9.59121C20.101 9.44511 19.9312 9.32922 19.7442 9.25015C19.5572 9.17107 19.3568 9.13037 19.1544 9.13037C18.952 9.13037 18.7516 9.17107 18.5646 9.25015C18.3776 9.32922 18.2078 9.44511 18.0647 9.59121Z" fill="white"/>
<defs>
<linearGradient id="paint0_linear_34_1198" x1="2.73913" y1="-6.75401e-08" x2="21.6087" y2="29.2174" gradientUnits="userSpaceOnUse">
<stop stop-color="#149802"/>
<stop offset="0.514423" stop-color="#6CD45E"/>
<stop offset="1" stop-color="#149802"/>
</linearGradient>
</defs>
</svg>
