<svg viewBox="0 0 40 40" fill="none" xmlns="http://www.w3.org/2000/svg">
  <g clip-path="url(#clip0_7_511)">
    <path d="M12.5 21.6667C11.0166 21.6667 9.56659 21.2268 8.33322 20.4027C7.09985 19.5786 6.13856 18.4072 5.5709 17.0368C5.00325 15.6664 4.85472 14.1584 5.14411 12.7035C5.4335 11.2486 6.14781 9.91226 7.1967 8.86337C8.24559 7.81448 9.58197 7.10017 11.0368 6.81078C12.4917 6.52139 13.9997 6.66992 15.3701 7.23757C16.7406 7.80523 17.9119 8.76652 18.736 9.99989C19.5601 11.2333 20 12.6833 20 14.1667C19.9978 16.1551 19.2069 18.0615 17.8009 19.4675C16.3948 20.8736 14.4884 21.6645 12.5 21.6667ZM12.5 10C11.6759 10 10.8703 10.2444 10.1851 10.7022C9.49992 11.1601 8.96587 11.8108 8.6505 12.5722C8.33514 13.3335 8.25262 14.1713 8.41339 14.9795C8.57417 15.7878 8.971 16.5302 9.55372 17.1129C10.1364 17.6957 10.8789 18.0925 11.6871 18.2533C12.4954 18.414 13.3332 18.3315 14.0945 18.0162C14.8559 17.7008 15.5066 17.1668 15.9645 16.4815C16.4223 15.7963 16.6667 14.9908 16.6667 14.1667C16.6667 13.0616 16.2277 12.0018 15.4463 11.2204C14.6649 10.439 13.6051 10 12.5 10ZM25 38.3333V37.5C25 34.1848 23.683 31.0054 21.3388 28.6612C18.9946 26.317 15.8152 25 12.5 25C9.18479 25 6.00537 26.317 3.66117 28.6612C1.31696 31.0054 0 34.1848 0 37.5L0 38.3333C0 38.7754 0.175595 39.1993 0.488155 39.5119C0.800716 39.8244 1.22464 40 1.66667 40C2.10869 40 2.53262 39.8244 2.84518 39.5119C3.15774 39.1993 3.33333 38.7754 3.33333 38.3333V37.5C3.33333 35.0689 4.2991 32.7373 6.01819 31.0182C7.73727 29.2991 10.0688 28.3333 12.5 28.3333C14.9312 28.3333 17.2627 29.2991 18.9818 31.0182C20.7009 32.7373 21.6667 35.0689 21.6667 37.5V38.3333C21.6667 38.7754 21.8423 39.1993 22.1548 39.5119C22.4674 39.8244 22.8913 40 23.3333 40C23.7754 40 24.1993 39.8244 24.5118 39.5119C24.8244 39.1993 25 38.7754 25 38.3333ZM40 30C39.9999 27.7478 39.348 25.5438 38.1228 23.6539C36.8977 21.7641 35.1517 20.2693 33.0957 19.3499C31.0397 18.4306 28.7616 18.126 26.5362 18.4729C24.3109 18.8198 22.2336 19.8034 20.555 21.305C20.3896 21.4503 20.2547 21.627 20.1579 21.8248C20.0612 22.0226 20.0046 22.2376 19.9915 22.4573C19.9783 22.6771 20.0088 22.8973 20.0812 23.1052C20.1537 23.3132 20.2666 23.5047 20.4134 23.6687C20.5603 23.8327 20.7382 23.966 20.9369 24.0609C21.1355 24.1558 21.3511 24.2104 21.5709 24.2215C21.7908 24.2326 22.0107 24.2001 22.218 24.1257C22.4252 24.0514 22.6157 23.9367 22.7783 23.7883C23.9774 22.716 25.4612 22.0137 27.0507 21.7661C28.6401 21.5185 30.2673 21.7362 31.7357 22.393C33.2041 23.0498 34.4511 24.1175 35.3261 25.4673C36.201 26.8172 36.6666 28.3914 36.6667 30C36.6667 30.442 36.8423 30.866 37.1548 31.1785C37.4674 31.4911 37.8913 31.6667 38.3333 31.6667C38.7754 31.6667 39.1993 31.4911 39.5118 31.1785C39.8244 30.866 40 30.442 40 30ZM29.1667 15C27.6833 15 26.2333 14.5601 24.9999 13.736C23.7665 12.9119 22.8052 11.7406 22.2376 10.3701C21.6699 8.99968 21.5214 7.49168 21.8108 6.03683C22.1002 4.58197 22.8145 3.2456 23.8634 2.1967C24.9123 1.14781 26.2486 0.433503 27.7035 0.144114C29.1583 -0.145275 30.6663 0.00324965 32.0368 0.570907C33.4072 1.13856 34.5786 2.09986 35.4027 3.33323C36.2268 4.5666 36.6667 6.01664 36.6667 7.5C36.6645 9.48845 35.8736 11.3948 34.4675 12.8009C33.0615 14.2069 31.1551 14.9978 29.1667 15ZM29.1667 3.33334C28.3426 3.33334 27.537 3.57771 26.8518 4.03555C26.1666 4.49339 25.6325 5.14413 25.3172 5.90549C25.0018 6.66685 24.9193 7.50463 25.0801 8.31288C25.2408 9.12113 25.6377 9.86356 26.2204 10.4463C26.8031 11.029 27.5455 11.4258 28.3538 11.5866C29.162 11.7474 29.9998 11.6649 30.7612 11.3495C31.5225 11.0341 32.1733 10.5001 32.6311 9.81488C33.089 9.12967 33.3333 8.32409 33.3333 7.5C33.3333 6.39493 32.8943 5.33513 32.1129 4.55373C31.3315 3.77232 30.2717 3.33334 29.1667 3.33334Z" fill="white"/>
  </g>
  <defs>
    <clipPath id="clip0_7_511">
      <rect width="40" height="40" fill="white"/>
    </clipPath>
  </defs>
</svg>
